<svg width="110" height="110" viewBox="0 0 110 110" fill="none" xmlns="http://www.w3.org/2000/svg">
<g clip-path="url(#clip0_47_654)">
<path fill-rule="evenodd" clip-rule="evenodd" d="M55 110C85.3757 110 110 85.3757 110 55C110 24.6243 85.3757 0 55 0C24.6243 0 0 24.6243 0 55C0 85.3757 24.6243 110 55 110Z" fill="#71D9B4"/>
<path fill-rule="evenodd" clip-rule="evenodd" d="M70.9063 76.1526C70.5088 76.1409 70.1125 76.023 69.7531 75.7962C69.7493 75.7962 69.2893 75.4994 68.3451 74.985C67.3996 74.4692 66.0068 73.759 64.2712 73.0139C60.804 71.5133 55.9503 69.8519 50.5258 69.2144C48.8603 69.02 47.2573 68.9008 45.7243 68.8502C38.8306 68.6195 33.4124 69.6627 31.2041 70.1785C30.465 70.3509 30.1235 70.4558 30.1235 70.4558C28.8938 70.8226 27.6068 70.1033 27.2449 68.8541C26.8869 67.6023 27.5903 66.2908 28.8187 65.9254C28.9754 65.88 35.9647 63.8079 45.8709 64.1332C47.5223 64.1902 49.2591 64.3159 51.0533 64.5271C63.0887 65.9591 72.0468 71.7064 72.2125 71.7932C73.3007 72.4865 73.6294 73.9431 72.949 75.0459C72.4979 75.7871 71.7066 76.1798 70.9063 76.1526ZM79.3445 62.236C78.7762 63.1574 77.7899 63.6524 76.7896 63.6174C76.2926 63.6006 75.797 63.4528 75.3484 63.1677C75.3459 63.1716 75.2439 63.1003 74.97 62.9384C74.6934 62.7751 74.278 62.5353 73.7378 62.2412C72.6495 61.6477 71.0542 60.8312 69.0548 59.9695C65.0664 58.2446 59.4838 56.3397 53.2476 55.6088C51.3387 55.3833 49.4923 55.2498 47.7275 55.1915C39.7952 54.9246 33.5602 56.1233 31.0257 56.7168C30.1796 56.9164 29.796 57.0304 29.7935 57.0343C28.258 57.4878 26.6448 56.5911 26.1962 55.0269C25.7451 53.4615 26.6257 51.8222 28.165 51.3712C28.3599 51.3103 36.449 48.9142 47.9148 49.2952C49.8262 49.3587 51.8319 49.5013 53.9102 49.7475C67.8557 51.4088 78.2232 58.0529 78.4296 58.1708C79.7841 59.039 80.197 60.8572 79.3445 62.236ZM86.2001 49.2499C85.5158 50.3566 84.3282 50.9475 83.1316 50.9073C82.5391 50.8879 81.9415 50.7129 81.405 50.3682C81.405 50.3682 81.2801 50.2879 80.9565 50.0948C80.6353 49.9056 80.1473 49.6218 79.5051 49.2719C78.2257 48.5786 76.3436 47.6183 73.9888 46.5998C69.2867 44.5691 62.7103 42.3207 55.3667 41.459C53.1138 41.1946 50.9361 41.0391 48.859 40.9717C37.9551 40.6011 29.7744 42.5825 28.0579 43.0451C27.8133 43.1099 27.7266 43.1359 27.7266 43.1359C25.8828 43.684 23.951 42.6058 23.4107 40.732C22.8704 38.8555 23.9255 36.8871 25.7732 36.3389C26.0076 36.2741 35.5544 33.4439 49.0858 33.8949C51.3426 33.9687 53.7076 34.1346 56.1606 34.4249C72.6266 36.3882 84.8506 44.227 85.0991 44.3682C86.7263 45.405 87.2195 47.5937 86.2001 49.2499Z" fill="white"/>
</g>
<defs>
<clipPath id="clip0_47_654">
<rect width="110" height="110" fill="white"/>
</clipPath>
</defs>
</svg>
