<svg width="297" height="83" viewBox="0 0 297 83" fill="none" xmlns="http://www.w3.org/2000/svg">
<path d="M32.242 54.0356C32.242 61.5583 26.1437 67.6566 18.621 67.6566C11.0983 67.6566 5 61.5583 5 54.0356C5 46.5129 11.0983 40.4146 18.621 40.4146C26.1437 40.4146 32.242 46.5129 32.242 54.0356ZM32.242 54.0356V5L59.484 13.1726" stroke="#71D9B4" stroke-width="8.1726" stroke-linecap="round" stroke-linejoin="round"/>
<path d="M60.8511 71.0847C57.1371 71.0847 53.8672 70.358 51.0413 68.9047C48.2558 67.4514 46.0961 65.4733 44.562 62.9704C43.028 60.4271 42.261 57.5407 42.261 54.3112C42.261 51.0413 43.0078 48.1549 44.5015 45.652C46.0355 43.1087 48.1145 41.1306 50.7385 39.7177C53.3626 38.2644 56.3297 37.5377 59.64 37.5377C62.8292 37.5377 65.6954 38.224 68.2387 39.5966C70.8223 40.9288 72.8609 42.8665 74.3546 45.4098C75.8483 47.9127 76.5951 50.9202 76.5951 54.4323C76.5951 54.7956 76.5749 55.2195 76.5346 55.7039C76.4942 56.148 76.4538 56.5719 76.4134 56.9756H49.9513V51.4652H71.448L67.8148 53.1001C67.8148 51.4046 67.4716 49.9311 66.7854 48.6797C66.0991 47.4282 65.1504 46.4594 63.9393 45.7731C62.7282 45.0464 61.3153 44.6831 59.7005 44.6831C58.0858 44.6831 56.6527 45.0464 55.4012 45.7731C54.1901 46.4594 53.2414 47.4484 52.5552 48.7402C51.8689 49.9917 51.5257 51.4853 51.5257 53.2212V54.6745C51.5257 56.4508 51.9093 58.0252 52.6763 59.3977C53.4837 60.7299 54.5938 61.7593 56.0067 62.486C57.46 63.1723 59.1556 63.5154 61.0933 63.5154C62.8292 63.5154 64.343 63.253 65.6348 62.7282C66.967 62.2034 68.1781 61.4162 69.2681 60.3666L74.2941 65.8165C72.8004 67.512 70.9232 68.824 68.6625 69.7525C66.4019 70.6406 63.798 71.0847 60.8511 71.0847Z" fill="#71D9B4"/>
<path d="M101.98 70.6002V64.2421L101.374 62.8493V51.4652C101.374 49.4467 100.749 47.8723 99.4973 46.7419C98.2862 45.6116 96.409 45.0464 93.8658 45.0464C92.1299 45.0464 90.4142 45.329 88.7187 45.8942C87.0635 46.419 85.6506 47.1456 84.4799 48.0741L81.0889 41.4737C82.8651 40.2223 85.0047 39.2534 87.5076 38.5671C90.0105 37.8809 92.5538 37.5377 95.1374 37.5377C100.103 37.5377 103.958 38.7084 106.703 41.0499C109.448 43.3913 110.821 47.0447 110.821 52.0101V70.6002H101.98ZM92.0492 71.0847C89.5059 71.0847 87.3259 70.6608 85.5093 69.813C83.6927 68.9249 82.3 67.734 81.3311 66.2403C80.3622 64.7467 79.8778 63.0713 79.8778 61.2144C79.8778 59.2766 80.342 57.5811 81.2705 56.1278C82.2394 54.6745 83.7533 53.5442 85.8121 52.7368C87.8709 51.889 90.5555 51.4652 93.8658 51.4652H102.525V56.9756H94.8952C92.6749 56.9756 91.1408 57.3389 90.2931 58.0655C89.4857 58.7922 89.082 59.7005 89.082 60.7905C89.082 62.0016 89.5463 62.9704 90.4747 63.6971C91.4436 64.3833 92.7556 64.7265 94.4108 64.7265C95.9852 64.7265 97.3981 64.3632 98.6495 63.6365C99.901 62.8695 100.809 61.7593 101.374 60.306L102.828 64.6659C102.141 66.7651 100.89 68.3597 99.0734 69.4497C97.2568 70.5397 94.9154 71.0847 92.0492 71.0847Z" fill="#71D9B4"/>
<path d="M119.37 70.6002V38.0222H128.393V47.2264L127.121 44.562C128.09 42.2609 129.644 40.5251 131.784 39.3544C133.924 38.1433 136.527 37.5377 139.595 37.5377V46.2575C139.192 46.2171 138.828 46.197 138.505 46.197C138.182 46.1566 137.839 46.1364 137.476 46.1364C134.892 46.1364 132.793 46.8832 131.178 48.3769C129.604 49.8302 128.817 52.1111 128.817 55.2195V70.6002H119.37Z" fill="#71D9B4"/>
<path d="M160.72 71.0847C157.208 71.0847 154.079 70.3782 151.334 68.9653C148.589 67.512 146.429 65.5137 144.855 62.9704C143.321 60.4271 142.554 57.5407 142.554 54.3112C142.554 51.0413 143.321 48.1549 144.855 45.652C146.429 43.1087 148.589 41.1306 151.334 39.7177C154.079 38.2644 157.208 37.5377 160.72 37.5377C164.151 37.5377 167.138 38.2644 169.682 39.7177C172.225 41.1306 174.102 43.1693 175.313 45.8336L167.986 49.7696C167.138 48.2356 166.069 47.1053 164.777 46.3786C163.525 45.652 162.153 45.2886 160.659 45.2886C159.044 45.2886 157.591 45.652 156.299 46.3786C155.007 47.1053 153.978 48.1347 153.211 49.4669C152.484 50.7991 152.121 52.4138 152.121 54.3112C152.121 56.2086 152.484 57.8233 153.211 59.1555C153.978 60.4877 155.007 61.5171 156.299 62.2438C157.591 62.9704 159.044 63.3337 160.659 63.3337C162.153 63.3337 163.525 62.9906 164.777 62.3043C166.069 61.5777 167.138 60.4271 167.986 58.8527L175.313 62.8493C174.102 65.4733 172.225 67.512 169.682 68.9653C167.138 70.3782 164.151 71.0847 160.72 71.0847Z" fill="#71D9B4"/>
<path d="M200.376 37.5377C202.96 37.5377 205.261 38.0625 207.279 39.1121C209.338 40.1214 210.953 41.6958 212.123 43.8353C213.294 45.9346 213.88 48.6393 213.88 51.9496V70.6002H204.433V53.4029C204.433 50.7789 203.848 48.8411 202.677 47.5897C201.547 46.3382 199.932 45.7125 197.833 45.7125C196.339 45.7125 194.987 46.0355 193.776 46.6814C192.605 47.2869 191.676 48.2356 190.99 49.5274C190.344 50.8192 190.021 52.4744 190.021 54.4929V70.6002H180.575V25.6691H190.021V47.0447L187.902 44.3198C189.073 42.1398 190.748 40.4645 192.928 39.2938C195.108 38.1231 197.591 37.5377 200.376 37.5377Z" fill="#71D9B4"/>
<path d="M222.442 70.6002V38.0222H231.889V70.6002H222.442ZM227.165 33.4806C225.43 33.4806 224.017 32.976 222.927 31.9668C221.837 30.9575 221.292 29.7061 221.292 28.2124C221.292 26.7187 221.837 25.4673 222.927 24.4581C224.017 23.4488 225.43 22.9442 227.165 22.9442C228.901 22.9442 230.314 23.4286 231.404 24.3975C232.494 25.326 233.039 26.5371 233.039 28.0308C233.039 29.6052 232.494 30.9172 231.404 31.9668C230.355 32.976 228.942 33.4806 227.165 33.4806Z" fill="#71D9B4"/>
<path d="M241.806 70.6002V37.2955C241.806 33.6219 242.896 30.6951 245.076 28.5152C247.256 26.2949 250.365 25.1847 254.402 25.1847C255.774 25.1847 257.086 25.326 258.338 25.6086C259.629 25.8912 260.719 26.3352 261.607 26.9408L259.125 33.7834C258.6 33.4201 258.015 33.1375 257.369 32.9356C256.723 32.7338 256.036 32.6329 255.31 32.6329C253.937 32.6329 252.868 33.0366 252.1 33.8439C251.374 34.611 251.011 35.7817 251.011 37.3561V40.3838L251.253 44.4409V70.6002H241.806ZM236.78 46.0153V38.7488H259.367V46.0153H236.78Z" fill="#71D9B4"/>
<path d="M268.782 82.8321C267.087 82.8321 265.411 82.5697 263.756 82.0449C262.101 81.5201 260.749 80.7935 259.699 79.865L263.151 73.1435C263.877 73.7894 264.705 74.294 265.633 74.6573C266.602 75.0207 267.551 75.2023 268.479 75.2023C269.812 75.2023 270.861 74.8794 271.628 74.2335C272.436 73.6279 273.162 72.5985 273.808 71.1452L275.504 67.1486L276.23 66.1192L287.917 38.0222H297L282.286 72.5985C281.236 75.2225 280.025 77.2813 278.652 78.775C277.32 80.2687 275.827 81.3183 274.171 81.9238C272.557 82.5294 270.76 82.8321 268.782 82.8321ZM274.353 71.8719L259.82 38.0222H269.569L280.832 65.2715L274.353 71.8719Z" fill="#71D9B4"/>
</svg>
